<?xml version="1.0" encoding="UTF-8" standalone="no"?>
<!DOCTYPE svg PUBLIC "-//W3C//DTD SVG 1.1//EN" "http://www.w3.org/Graphics/SVG/1.1/DTD/svg11.dtd">
<svg width="100%" height="100%" viewBox="0 0 875 860" version="1.1" xmlns="http://www.w3.org/2000/svg" xmlns:xlink="http://www.w3.org/1999/xlink" xml:space="preserve" xmlns:serif="http://www.serif.com/" style="fill-rule:evenodd;clip-rule:evenodd;stroke-linejoin:round;stroke-miterlimit:2;">
    <g transform="matrix(1,0,0,1,-64.2,-69.5)">
        <path d="M448.4,276.5C449.8,282 451.5,287.3 453.3,292.6C453.8,293 454.2,293.3 454.6,293.8C456,289.6 459.6,286.3 464.3,285.5C465,285.4 465.6,285.3 466.2,285.3L465.6,286C463.7,288 462.2,290.1 462.4,292.5C462.4,292.7 462.5,292.8 462.5,293C466.3,292.3 470.1,291.6 473.9,291.1L474.1,290.7C471.7,288.9 474,287.2 476.3,290C478.1,286 482.1,283.1 486.8,282.8C491.5,282.5 495.8,284.8 498.2,288.5C498.6,287.9 499,287.3 499.4,286.8C510.3,256.6 515.6,224.4 513.6,192.5C512.7,178.4 510.3,164.3 506.5,150.7C500.2,128.1 489.9,106.7 475.7,88.1C475.9,88.3 474.2,91.8 474,92.2C465.1,113.4 456.4,134.8 449.8,157C447.4,165 445.4,173.1 444.1,181.4C442.3,191.9 441.3,202.6 441.1,213.2C440.8,223.9 441.3,234.5 442.5,245.1C443.7,255.7 445.7,266.2 448.4,276.5ZM490.6,142.4C492.2,138.7 495.6,138.1 499.1,139.9L500.6,140.8C499.7,142.6 498.7,145.1 497.2,146.6L496.9,146.7C496,147.4 494.8,147.9 493.8,148C492.5,148.4 491.1,148.7 489.8,149.2L489.8,146.8L489.7,146.8C489.7,146.5 490,146.1 490,145.8C489.9,144.6 490,143.6 490.6,142.4ZM491.2,253.7C492.5,254.4 493.7,255.3 494.8,256.4C493.4,258.3 492,260.3 490.9,262.3L489.4,260.8C488.8,260.2 487.9,259.8 487.2,259.5C488.4,257.4 489.7,255.5 491.2,253.7ZM455.4,153.5L456,152.8L456.7,152.9C460.9,152.9 461.1,153.8 463.8,158.8L466.2,163.5C462.1,161.2 457.8,159.1 453.6,156.9C454,155.9 454.6,154.2 455.4,153.5ZM538,180.3C535.1,191.6 532.5,203 530.6,214.5C526.8,237.3 525.4,260.7 528.5,283.7C528.7,286.1 529.1,288.3 529.5,290.5C530.5,290.6 531.6,290.8 532.6,290.9C532.7,289.5 533.2,288.2 534.3,286.8C534.6,286.3 534.9,285.8 535.2,285.3C538.4,286.6 541,289.2 542.2,292.4C545.3,289.2 549.9,287.7 554.5,288.8C559.1,289.9 562.4,293.4 563.6,297.7C567,294.8 571.8,293.8 576.2,295.4C577.6,295.9 578.9,296.7 580,297.6C579.2,297.5 578.4,297.5 577.4,297.8C577.2,297.9 576.9,298 576.6,298.1L575.1,298.5C575.3,299.6 575.5,300.7 575.8,301.8C577.5,302.4 579.2,303.1 580.9,303.7C582.2,302.8 582.6,301.6 582.6,300.4C583.5,301.9 584.1,303.4 584.4,305.1L584.5,305.1C585.5,304.4 586.5,303.9 587.7,303.5C594.2,292.4 599.4,280.5 603.2,268.3C607.6,254.7 610.4,240.7 612.1,226.5C611.2,224.3 611.7,222.8 612.7,221.6C614,209.2 614.4,196.6 614.3,184C614.1,169.8 613.1,155.5 611.7,141.4C610.7,131.1 609.3,120.7 605.1,111.2C600.9,101.8 593.3,93.3 583.4,90.4C582.5,90.1 575,102.9 574.2,104.3C562.2,123.2 550.6,143.2 542.8,164.2C540.7,169.6 539.5,174.9 538,180.3ZM598.4,222.9C599,225 599.3,227.1 599.6,229.3C599.6,230.3 598.7,230.6 597.5,231.1C597.2,231.2 597.2,231.2 597.2,231.4L595.9,232C592.9,227.9 594.4,225.1 598.4,222.9ZM576.6,273.5C575.6,277.9 571.4,277.1 569.3,274.6C569.5,274.8 569.7,275.2 569.2,274.5C568.5,273.5 567.6,272.6 566.8,271.7C567.8,271.1 569,270.5 570.1,269.8C572.9,268 574,268.6 576.2,270.8C576.4,271.5 576.9,272.4 576.6,273.5ZM556.8,207.5C556.9,207.4 557.1,206.8 557.4,205.6C561.1,194.3 568.5,185.9 579,181L579.6,183.4C581.7,194.8 572.3,204.2 567.1,213.4C562.2,222.1 558.5,231.6 553.9,240.5C552.3,240.2 550.6,239.8 549,239.2C548.8,228.5 553.3,217.7 556.8,207.5ZM510.5,144.3C509.8,141.6 511,139.7 512.1,137.2C519.3,120.1 526.5,102.9 533.7,85.8C536,80.4 538.3,74.9 540.6,69.5C543.7,92.1 546.5,115 543.9,137.7C539.8,171.7 523.7,203.9 521.9,238.2C521.2,251.8 522.7,265.5 522.9,279.1C523,281.6 522.9,284.2 522.8,286.7C521.8,287.4 520.9,288.2 520.2,289.2C518.2,285.3 514.2,282.5 509.4,282.4C508.3,282.4 507.2,282.5 506.1,282.7C508.4,275.9 510.4,268.9 512.1,261.9C517,241.3 519.1,220.1 518.5,199C518.2,188.4 517.2,177.9 515.5,167.5C514.6,162.3 513.6,157.1 512.4,152C511.8,149.4 511.1,146.9 510.5,144.3ZM860.3,370.6C856.6,372.1 852.9,373.7 849.3,375.4C837.5,381.1 826.3,387.9 814.9,394.1C789.2,408 760.9,419.1 731.7,417.9C727,417.7 722.4,417.2 717.7,416.8C717.2,417.3 716.7,417.8 716.2,418.3C716.1,417.8 716,417.2 715.9,416.6C711.4,416.3 706.8,416.1 702.2,416.4C702.5,416.9 702.7,417.3 702.9,417.8C704.5,421.9 703.9,426.3 701.6,429.6C701.7,429.9 701.8,430.3 701.9,430.6C702.4,430.7 702.8,430.9 703.2,431.1L704.3,426L706.1,427.2C710.5,428.8 714.7,430.9 718.7,433.1L718.3,434.4C716.6,439.4 713.3,440.1 710.5,440.3C710.7,441.2 710.7,442.2 710.7,443.1C719.9,441 729.2,438.9 738.4,437.5C739.9,437.3 741.5,437.1 743,436.9C740,435.4 738.8,430.3 735.4,431.8L730.2,434.5L733.2,429.5C739,420.5 740.9,419.9 750.7,423.7L752.3,424.4C750.4,428.4 748.5,432.5 746.5,436.5C767.4,434.4 788.6,435 809.2,431.4C849.9,424.3 887.4,399.8 910.3,365.4C893.9,361.2 876.2,364.4 860.3,370.6ZM877.9,394.5C874.5,392.4 871.1,390.3 867.7,388.3C869.8,384.4 871.9,380.7 873.9,376.9L876.7,379.1C877,379.7 877.1,380.3 877.4,381C877.5,381.3 878,381.4 878.3,381.4L880.2,381.4C881.5,382.3 883,383.2 884.4,384.2C882.2,387.7 880.1,391.1 877.9,394.5ZM414.3,251.7C419.4,250.2 424.6,248.6 429.6,246.8L428.7,245C428,243.8 428.1,243.2 428.1,243.1C429,241.1 433.3,240.3 434.9,238.5C436,256.2 440,273.8 446.9,290.2C445.4,290 443.8,290.2 442.2,290.6C438.5,291.6 435.8,294.1 434.3,297.3C426.2,282.8 419.6,267.5 414.3,251.7ZM488.1,750.9C484.4,745 486.2,742.6 490.4,741.5C489.7,744.6 488.9,747.7 488.1,750.9ZM713.9,469.5C715.2,467.1 715.8,464.2 715.3,461.3C714.6,457 711.7,453.6 708,452C707.9,451.6 707.8,451.2 707.7,450.9C708.3,450.1 708.9,449.3 709.3,448.4C709.9,448.2 710.6,447.9 711.3,447.8C718.9,445.3 726.9,444.3 734.8,443.4C773.6,438.9 812.4,434.4 851.4,433.3C863.8,432.9 876.4,433 888.3,436.7C893.9,438.5 899.3,441.3 903.9,445C909,449.1 913.1,454.2 915.3,460.4C913.2,461.7 911,462.7 908.7,463.5C908.3,463.1 907.8,462.7 907.4,462.4C906.1,461.4 904.9,460.5 903.7,459.3C902.2,461.4 900.8,463.5 899.3,465.6C894.8,466.1 890.2,466 885.7,465.4C875.6,464.2 865.8,461 855.9,458.4C809,446.3 758.3,450.4 713.9,469.5ZM393.9,143.7C393,135.3 390.9,125.8 391.5,117.4C395.3,120.3 398.5,125.5 401.5,129.1C404.8,133.1 408,137.2 411.2,141.4C417.5,149.7 423.6,158.2 429.4,166.8C432.4,171.3 435.4,176 436.8,181.2C440.5,194.9 432.9,209.5 434.7,223.6C434.6,227.3 434.6,230.9 434.7,234.6C434.3,233.1 433.8,231.5 433.3,230C428.4,229 422.3,226.7 418.6,231.5C416.8,233.6 416.1,236.8 415.3,239.5C413.5,240.2 412.2,241.1 411.3,242.1C410.1,238.1 409,234 407.9,229.9C407.3,227.5 406.7,225.1 406.1,222.7C405.9,221.7 405.7,220.7 405.4,219.7L405.5,219.7L407,220.3C408.6,215.7 410.7,211.4 412.2,206.8C408.5,204.7 404.9,202.5 401.5,200.1C400.3,193.2 399.2,186.3 398.2,179.4C399.5,177.2 400.8,175 402.1,172.8C400.4,171.9 398.6,171 396.9,170C395.8,161.2 394.8,152.5 393.9,143.7ZM476.5,755.5C480.2,754.7 483.8,754 487.5,753.1C486.6,756.5 485.5,759.9 484.5,763.3C477.6,762.8 477.4,761.7 476.5,755.5ZM617.6,218.5C617.9,216.1 618.1,213.6 618.2,211.1C618.5,205.6 618.7,200.1 618.6,194.6C618.6,192.3 617.9,189.2 618.6,187C619.3,185 621.1,183 622.2,181.2C624,178.2 625.8,175.1 627.6,172.1C631.8,164.9 636,157.7 640.1,150.4C651.8,129.7 662.9,108.7 673.6,87.5C679.4,99.5 685.2,111.6 688,124.6C690.8,137.6 690.5,151.8 684.3,163.5C680.4,170.9 674.4,177 668.8,183.2C659.7,193.3 651.2,203.9 643.5,215.1C642.9,215 642.3,214.9 641.6,214.7C632.1,212.8 627.1,211.7 621.9,220.6C620.7,219.2 619.3,218.5 617.6,218.5ZM655.8,280.7C652.8,284.8 650.1,289 647.5,293.4C645.1,297.5 643.4,302 641.1,306C637.4,312.4 634.5,319.3 632.5,326.5C633.5,326.9 634.5,327.5 635.5,328.2C639.1,331 640.8,335.5 640.2,339.8C640.3,339.9 640.4,339.9 640.4,340C644.5,338.8 649.2,339.8 652.5,343.1C655.5,346 656.7,350.1 656.2,354C657.1,353.9 658,353.8 658.8,353.6C659.7,353.4 660.6,353.3 661.5,353.1C659.7,352.4 658.1,351.7 657,351.4L658.6,349.5C662.8,344.8 664.2,343.6 668.8,345.8C667.8,345.2 667,344.9 669.8,346.2C671.8,347.3 673.8,348.3 675.8,349.4C693.2,343.7 709.3,334.2 723.5,322.6C742.3,307.3 757.8,288.4 771.7,268.5C782.5,253.1 792.5,236.6 795.6,218.1C796.5,212.7 796.3,206.2 792.8,202.4C792.2,201.7 791.4,201.1 790.5,200.6C786.2,198.2 780.9,199.6 776.3,201.2C749,210.4 722.3,222.2 698.8,238.9C682.6,250.3 667.7,264.3 655.8,280.7ZM757.9,248.1L759.1,248.2C765.8,249.2 765.3,256.2 770.4,258.1L772.3,258.8C771.3,260.3 770.2,261.6 769.2,263.1C763.3,262.5 757.3,262.1 751.3,261.9C753.4,257.4 755.5,252.7 757.9,248.1ZM648.7,216.5C650.9,217.4 652.5,219 653.3,222.3C650.4,222.8 646.6,223.3 643.4,224.4C635.3,236.9 627.9,249.8 621.4,263.1C618.4,269.2 615.7,275.5 613.2,282L613.3,282C613.2,282.1 613.2,282.2 613.1,282.4C609.4,292.2 606.3,302.4 603.7,312.6C603.9,313.3 604,314 604.1,314.8C608,312.7 612.9,312.7 616.9,315.2C620.9,317.7 623,322.1 622.8,326.5C624.1,326 625.5,325.7 626.9,325.6C627.2,325.2 627.4,324.7 627.7,324.3C632.6,315.5 636.2,306.1 640.7,297.1C649.4,279.6 661.6,263.9 676.4,251.2C686.7,242.4 698.4,234.8 706.7,224.1C713.4,215.6 717.6,205.5 721.7,195.5C730.5,174.2 739.6,151.8 738,128.3C737.9,127.5 737.9,126.9 737.8,126.3C737.7,125.7 737.7,125.1 737.5,124.5C734.1,126.5 731,129.5 727.8,131.9C723.4,135.3 719,138.7 714.8,142.4C706.2,149.8 698,157.5 690.2,165.7C676.6,179.8 664,194.8 652.7,210.8C651.4,212.7 650,214.6 648.7,216.5ZM631.8,272.8C628.1,275.2 624.5,277.7 620.9,280.3C620.6,279.3 620.6,278.4 620.6,277.2C620.9,274.4 620.9,271.6 620.9,268.7C624.5,266 628.3,258.9 632.3,257.1C635.3,255.8 637.5,257 640.2,255.2C639.3,254 638.9,252.7 638.9,251.3C638.9,250.1 639.6,249.4 640.5,248.8C640.9,248.4 641.5,247.8 642.1,247.3C642.9,247.9 643.6,248.5 644.2,249.2C640.6,257.3 636.5,265.2 631.8,272.8ZM776.6,271.1C787.9,260.3 803,254.4 818,250.1C821.4,249.1 824.9,248.2 828.3,247.3C832.2,248 835.8,247.1 838.7,244.6C846.9,242.4 855,240.1 862.9,236.8C857.3,247.4 852.6,258.5 847.5,269.3C846.7,269.3 846,269.3 845.3,269.6C841.4,270.8 838.9,277 839.8,280.7C840.3,280.9 840.9,281.2 841.4,281.4C840.9,282.4 840.3,283.4 839.7,284.4C831,299.8 819.4,314.2 803.4,321.9C794.7,326.1 785.2,328.1 775.9,330.5C757.7,335.1 740,341.3 722.9,349C721.8,348.4 720.6,347.7 719.5,347.1C718.6,348.6 717.8,350.2 716.9,351.7C703.2,358.2 689.9,365.6 677.2,373.8C675.2,372.7 673,372.2 670.8,372.3C670.6,372.1 670.5,371.9 670.3,371.7C671.6,367.7 670.8,363.2 668,359.8C667.2,358.9 666.3,358.1 665.3,357.4C666.9,357 668.6,356.6 670.2,356.1C670.3,356.1 670.3,356.1 670.4,356C675.1,357.2 679.4,357.1 680.9,353.4L681.3,352.3C687.7,349.9 693.9,347.1 700,343.9C699.7,344.3 699.4,344.8 699.1,345.2L696.9,349.1C704.9,346.1 713.1,343.9 721.1,341.1C722.6,340.7 723.3,339.2 724.1,337.7C724.8,336.7 725.4,335.3 726.2,334.1L723.4,334C720.8,333.9 718.3,334.1 715.9,334.6C731.7,324 745.8,310.8 757.2,295.6C758.3,294.2 759.3,292.7 760.4,291.3C765.4,284.2 770.3,277 776.6,271.1ZM739.1,347.3C735.5,348.8 731.9,350.4 728.3,352C730.1,353 731.8,354 733.6,354.9C731.5,360.8 729.4,366.9 727.1,372.8C721.8,369.2 716.6,365.5 711.4,362C711.8,361.1 712.3,360.2 712.8,359.3C702.2,364.6 691.9,370.5 681.8,376.8C681.6,376.9 681.4,377.1 681.1,377.2C681.2,377.4 681.4,377.6 681.6,377.8C684,381.4 684.3,386 682.7,389.7C682.9,390 683.1,390.3 683.2,390.6C687.3,391 691.2,393.3 693.2,397.2C695.3,401.1 695.1,405.6 693.2,409.2C693.4,409.5 693.5,409.8 693.7,410.2C695,410.5 696.3,411 697.5,411.6C703.4,412.3 709.3,412.7 715.3,412.9C715.1,410.9 715.2,409 716.2,408C717.5,406.4 719.5,406.5 723.8,406.8L727.7,407.1C725.6,409 723.6,410.9 721.6,412.9C750.2,412.7 778.9,406.6 804.9,394.7C844.3,376.7 877.7,345.7 898.6,307.7C866.9,318.6 833.1,321.2 800.4,328.3C779.5,332.8 758.9,339.2 739.1,347.3ZM762.4,353.9L760.8,352.9C757.4,350.8 755.2,348.2 753.5,344.3C756.8,346.7 760.3,349 763.7,351.4C763.3,352.3 762.8,353 762.4,353.9ZM834.7,354.8L834.6,356.1C834.3,359.1 833.3,362.5 829.6,362.3C831.3,359.9 832.9,357.3 834.7,354.8ZM805,382.7C801.3,380.5 797.6,378.3 793.7,376.2C794.2,374.7 794.7,373 795.1,371.6C799.3,374 803.4,376.3 807.4,378.7C806.7,380 805.8,381.4 805,382.7ZM491.1,738.1C486.5,739 482.1,738.3 479.5,733C476.7,727.3 479.5,715 484.8,710.1C487,713 490.4,714.9 494.4,715L494.8,715C493.9,722.8 492.7,730.5 491.1,738.1ZM605.2,275.8C610.8,259.9 614.7,243.5 616.8,226.8C617.2,226.7 617.7,226.5 618.1,226.4C617.8,227.4 618.8,230.1 618.8,230.1C620.4,230.5 622.7,230.7 624.3,229.4L626.1,228.4C629.4,230.7 631.3,231.2 633.9,230C623.2,247.6 614.3,266.2 607.3,285.6C600.7,289.7 600.6,294.3 601.6,302.1C601.6,302.2 601.7,302.3 601.8,302.4C601.3,303.8 600.9,305.3 600.5,306.7C599.5,305.7 598.3,304.8 597,304.2C595.9,303.7 594.7,303.3 593.6,303.1C598,294.3 601.9,285.1 605.2,275.8ZM389.3,236.4C403.2,254.5 414.7,274.9 423.4,297.2C424.9,297 426.3,297 427.7,297.2C417,276.7 407.9,250.1 400.8,217.5C396.2,214.4 396,210.3 398.2,205.3C398.1,205 398.1,204.8 398,204.5C396.7,198.1 395.5,191.5 394.4,184.7C390,182.8 385.7,180.7 381.4,178.7L389.7,165.8C390.4,166.2 391.1,166.6 391.7,167C391.6,166.1 391.5,165.3 391.3,164.4C367.3,137.8 338.5,120.6 305.5,113.3C315.3,123 332,145.3 345.6,192.7C362.1,205.4 376.8,220.1 389.3,236.4ZM341.5,156.9L342.5,155.1C342.9,154.8 343,152.9 343.2,152.5L352.5,154.4C351.9,156.3 351.2,158.1 350.4,160C348,159.3 345.8,158.5 343.4,157.6L341.5,156.9ZM719.2,722.4C731.4,742.2 750,763.3 758.8,772.9C723.5,763.1 694.9,747 673.7,724.8C664.7,699.8 654.2,679.2 642.6,663.2C644.9,660.5 645.9,657.1 645.5,653.7C645.8,653.4 646.1,653.1 646.4,652.9C649.3,653.4 652.4,652.9 655,651.4C655.9,651.9 656.9,652.3 657.8,652.8L658.3,653C674.1,680.6 694.5,703.9 719.2,722.4ZM534.5,786.4C531.1,785.3 527.5,784.3 523.7,783C525.5,776.9 528.9,776.9 533.2,778.1C533.4,778.1 533.6,778.2 533.8,778.2C533.4,772.4 533.1,766.5 533.1,760.5C532.8,743.1 534,726.6 535.7,712C532.7,711.6 530,710.1 528,708C527.7,708 527.5,708.1 527.2,708.1C525.3,711.8 521.5,714.4 517,714.7C515.8,714.8 514.5,714.7 513.4,714.4C514,721.3 514.6,728.7 515,736.3C515.1,735.7 515.2,735.2 515.4,734.7C516.4,732.3 519.7,728.9 522.2,731.9C526.5,737.5 533.3,742.1 530.9,751.2C526.5,753.1 523.2,750.8 520.5,747.8C518.5,745.6 515.7,742 515,738.5C515.7,752.6 516,767.7 515.4,783C516.5,783.7 517.5,784.4 518.7,785.2C517.4,786.7 516.2,788.1 515.1,789.4C514.1,807.2 511.9,825 507.8,841.6C512.7,869.3 520.6,898.7 531.5,929C536.5,918.6 547.4,893.9 556.4,862.3C553,856.2 549.9,849.6 547.3,842.9C540.9,826.2 536.6,807.3 534.5,786.4ZM538.3,878C536.7,878.1 535,878.3 533.4,878.4C531.5,873.5 529.1,868.8 527.6,863.9L528.7,863.2C534.5,858.9 539.2,861.6 543.5,864.5L544.7,865.4C542.5,869.6 540.5,873.9 538.3,878ZM617.9,820.7C614.8,827.1 611.2,833.2 608,839.4C607.8,826.3 609.3,813.1 608.9,800C607.9,765.2 594.1,732.4 580.3,700.2C581.2,700.1 582.1,699.8 583,699.5C586.3,698.2 588.8,695.6 590,692.5C587.2,694.1 584.2,695 581.2,694.3C586.1,692.3 591,690.2 595.7,687.9C596.9,699.4 599.3,710.8 602.8,721.9C598.9,726.6 594.8,732.2 595.9,738.3C599.5,736.5 603,734.6 606.5,732.6C614,752.3 624.7,771 637.2,788C638.1,789.2 639,790.5 639.9,791.7L638.6,798L640.4,798.3C644.7,799.2 647.2,802.6 650.6,809.3C650.6,810.6 650.6,812.1 650.9,813.5C650.8,818.7 648.1,823.1 643,827.4L642.1,828.1L642.2,828.4L637.2,829.3C631.4,830.5 627.6,827.5 623.7,824.6C621.9,823.1 619.8,821.9 617.9,820.7ZM654.1,837C655.1,837.6 656.1,838.1 657.1,838.7C657,841.7 656.7,844.8 656.5,847.8C654.8,871.3 652.6,895.8 640.7,916.2C627.8,898.7 614.5,880.6 610,859.3C609.6,857.2 609.2,855.2 608.9,853.1C608.5,850 608.2,846.9 608.1,843.7C608.8,843.4 609.5,843.2 610.2,843C610.2,843 620.9,847.3 626.4,852.5L629.7,855.5L629.4,851.2C629.1,847.2 639.3,837.6 639.9,840.1C640.3,841.9 636,847.5 635.6,849.7L635,852.7L637.8,851.8C646.5,848.8 651.7,844.2 654.1,837ZM600.5,780.4C603.6,800 604.2,819.8 603.6,839.6C603.1,839.7 602.6,839.7 602,839.9L600.4,840.6C599.2,841.5 598.3,842.7 597.6,844.6L593.6,846.5L594,846.6C591.6,847.9 589.8,849.7 589.1,851.8C588.2,854.5 588.7,856.8 589.7,859.4L591,862.2C594,857.5 596.9,852.7 599.9,848L600.5,847.7L600.6,847.3C601.5,846.9 602.4,846.5 603.3,846.1C602.5,865.1 600.6,884 598.7,902.9C594.9,899.9 591.2,896.9 587.8,893.7C588.6,892.2 589.4,890.7 590.2,889.2C586.9,887.1 583.7,885.2 580.4,883.3L576.8,881.2C576.7,881.4 576.6,881.7 576.4,881.9C556.5,858.3 544.8,827.6 540.3,796.6C543.9,801 548.3,801.7 556.2,800.7C560.4,793.9 551.6,786.3 547.6,781.3C544.3,780.6 541.3,779.9 538.5,779.3C537.9,771.1 537.7,762.9 537.8,754.7C538,740.3 539.2,725.9 540.8,711.6C544.5,710.5 547.4,707.9 548.8,704.5C549.2,704.4 549.5,704.3 549.9,704.3C553,706.9 557.3,708 561.6,706.8C565.8,705.6 568.9,702.5 570.1,698.6C570.5,698.5 570.9,698.3 571.2,698.2C572.6,699.2 574.3,699.9 576,700.2C587.1,726.1 596.2,752.6 600.5,780.4ZM740,654C740,656.7 740.1,659.4 740.1,662.2C738.5,662.2 737,662.3 735.4,662.6L734.8,662C733.2,660.5 732.7,658.9 732.7,657.4C732.7,655.3 733.7,653 734.6,651C735.2,650.8 735.9,650.6 736.6,650.5C720.4,634.3 701.5,620.9 680.7,611.6C678.5,615 676.3,618.3 673.9,621.5C674.1,621.9 674.2,622.3 674.5,622.7L675,623.7C675.1,623.6 675.2,623.6 675.3,623.6C675.4,626.6 674.6,629.7 672.6,632.2C670.4,635 667.2,636.6 663.9,637C665.1,637.6 666.4,638.3 667.7,638.9C665.7,642.4 663.7,645.8 661.7,649.2C674.5,672.4 691.7,693.2 711.8,710.3C711.7,710.2 711.5,710.1 711.4,710C711.8,710.4 712.2,710.7 712.6,711C712.7,711.1 712.7,711.1 712.8,711.2C736.6,731.5 765.2,746.1 795.6,753.3C785.6,719.4 769.2,687 745.8,660.3C743.9,658.1 742,656 740,654ZM710.3,658.6L711,655.8C712.9,649.4 717.7,649 722.7,652.5L725.8,654.6C720.7,656 715.5,657.4 710.3,658.6ZM674.4,818.5C680.6,816 684.6,811.8 687.3,805.7L687.6,805C681.6,777.9 674.3,751.1 665.8,724.7C660.8,709.1 655.3,693.5 647.1,679.2C644.5,674.7 641.7,670.4 638.7,666.2C635.8,667.7 632.5,667.9 629.5,667.1C629.2,667.3 628.9,667.6 628.5,667.8C628.5,670.8 627.4,673.8 625.4,676.2C624.3,678.7 622.4,680.8 619.8,682.2C616.4,684 612.6,684.1 609.3,682.8C612.3,680.7 615.2,678.3 617.9,676.9C619.7,676 621.7,675.2 623.6,674.5C623.2,673.8 622.7,673 622.3,672.3C615,677.4 607.3,682 599.4,686.1C600.8,696.8 603.3,707.3 606.6,717.5C607.7,720.8 608.9,724.1 610.1,727.4C610.6,728.2 611.1,729.1 611.6,729.8C611.5,729.9 611.3,730 611.2,730C615.6,741.3 621,752.2 626.9,762.7C631.4,770.6 636.2,778.2 641.2,785.8L642.6,779C650.2,781.4 657.6,784 665,786.7L663.8,788.5C661.7,791.9 658.6,793.2 654.6,792.7C654.4,796.6 654.2,800.5 654.1,804.4C657.5,809.1 660.9,813.8 664.4,818.5C666.4,819.1 668.6,819.4 670.8,819.2L674.4,818.5ZM617,691.8C620.9,686 625.2,680.5 629.3,674.9C634,678.2 638.9,681.1 643.5,684.5C640.8,689.2 638.3,694.1 635.5,699C629.5,696.6 623.3,694.2 617,691.8ZM637.6,710.5L639.4,710.9C640,711.2 640.1,711.3 640.4,711.5L642.2,712.2C641.6,714.4 640.6,716.5 639.5,718.4C638.3,717.8 637.1,717.4 635.9,716.8C636.7,714.8 637.3,712.7 637.6,710.5ZM653.9,762.3L654.2,764.5C649.2,763.9 644.3,763.3 639.4,762.6C642.8,756.8 646.4,751.2 649.8,745.5L651.3,746.5C659.1,752 652.9,755.6 653.9,762.3ZM782.3,638.5C776.1,634.5 768.7,633 761.6,631.2C747.4,627.6 715.8,612.5 691,599.5C689.8,600.1 688.5,600.5 687.1,600.7C686.9,601.1 686.7,601.5 686.5,601.8C687.5,604.1 687.8,606.7 687.3,609.2C693.3,613.7 699.6,617.8 706,621.6C733.1,637.7 756.2,661.9 772.3,688.9C774.9,693.2 777.3,697.6 779.6,702.1C783.3,709.5 786.7,717.2 792.1,723.5C798.5,730.9 807.3,735.8 816.5,738.9C825.7,742 835.4,743.4 845.1,744.8C833.8,711.1 816.8,679.4 795.1,651.3C791.4,646.5 787.4,641.8 782.3,638.5ZM787.8,680.9C786.2,681.8 784.1,682.7 782.2,681.9C780.3,681 779.5,678.9 778.9,676.9L778,673.5C779.9,674.4 781.7,675.4 783.6,676.2L783.7,676.3C785.9,677.2 788.3,678.4 790.5,679.4L787.8,680.9ZM904.3,558.1C902.1,559 899.9,559.9 897.6,561.1L896.1,555.5C897.7,555.2 899.3,554.9 900.8,554.7C899.8,553.9 898.7,553.2 897.7,552.5C886.8,545 874.6,539.2 861.7,537.3C860.6,537.1 859.5,537 858.4,536.9C847.2,535.8 836,537.7 824.8,538.9C795.6,541.9 765.3,539.6 738.5,527.7C731.1,524.4 723.9,520.3 715.9,519C715,518.8 713.9,518.7 712.9,518.6C715.6,521.3 717,525.1 716.4,529.2C716.1,531.8 714.9,534.1 713.3,535.9C713.6,535.7 713.8,535.4 714,535.2C715.2,535.1 716.1,535.9 716.5,536.4C716.6,536.5 716.6,536.7 716.8,536.7L718,537.7C717.5,538.5 716.9,539.1 716.4,539.8C746,552.6 777.3,561.4 809,567.4C827.1,570.8 845.3,573.4 863.6,575.3C864.6,575.2 865.5,575.3 866.5,575.6C887.6,577.8 908.9,579.2 930.1,580.2C921.6,572.1 913.1,563.9 903.8,556.8C904,557.2 904.1,557.6 904.3,558.1ZM822.1,560.5C820.8,561.4 819.3,561.5 817.7,561.1C817.6,561 817.5,561 817.4,561L817.6,561C815.7,560.1 813.9,557.3 813.9,555.2C814,552.5 817.8,550 819.5,548.1C821,550.3 824.1,553.3 824.2,556.1C824.2,557.9 823.4,559.4 822.1,560.5ZM914.7,484.2C914.1,483.9 913.6,483.7 913,483.4C911.9,482.8 911.1,482.5 910.4,482C882.8,468.1 852.4,459.6 821.6,457.2C801.4,455.6 781.1,456.7 761.1,460.3L761.4,460.5L761.1,461.7C758.7,474 752.6,480.5 742.7,481.7L739.7,482L740.9,479.3C742.7,475.4 748.9,474.4 749.4,470C746.3,469.3 743.3,468.4 740.2,467.5L741.2,465.6C741.4,465.3 741.6,465 741.8,464.7C735.6,466.3 729.5,468.2 723.5,470.3C719.9,471.6 716.3,473 712.7,474.4C714.5,475.7 716,477.4 716.9,479.5C716.3,480.2 715.7,481 715.2,481.7L714.2,482.9C715.4,483.8 716.6,484.8 717.9,485.7C717.6,489.3 715.8,492.6 713.1,494.7L713.1,496C716.4,498.4 718.4,502.3 718.2,506.6C718.2,508.7 717.6,510.7 716.6,512.4C750.2,531.9 790.6,538 829.3,534.3C844.7,532.8 859.9,529.9 874.8,525.9C896.9,519.9 918.4,511.6 939.2,502L939.2,499.1C931.5,493.7 923.2,488.7 914.7,484.2ZM733.3,516.9L732.6,518.4C728.4,516 724.3,513.7 720.1,511.4L720.7,510.1C724.3,500.8 734.6,503.7 742.5,501.6C739.4,506.6 736.2,511.7 733.3,516.9ZM762.2,482.2C762.1,482.8 761.6,483.2 761.3,483.7C761.2,483.6 761.2,483.6 761,483.7C760.3,484.6 759.5,485.3 758.6,486.1C758.2,485.1 757.4,484 756.7,483.1C756.3,482.7 755.7,482.1 755.7,481.3C755.7,480.7 756.1,480.1 756.6,479.7C757.2,479 758.7,477.2 759.9,477.3C760.8,477.4 761.5,478.9 762,479.7C762.3,480.4 762.5,481.4 762.2,482.2ZM811.6,530.8C807.9,528.7 804.2,526.5 800.5,524.3C802.4,520.4 804.4,516.7 806.6,513L808.2,513.9C811.2,515.8 814.3,517.6 817.2,519.7C815.4,523.4 813.5,527.1 811.6,530.8ZM834.8,473.3C834.5,474 833.8,474.6 833.2,475.1L831.7,476.1C831.7,476.1 829.2,473.4 829,473.1C828.3,471.9 829.7,471.2 830.5,470.4C831.1,470 831.7,469.5 832.3,469.5C833.5,469.5 834.4,470.4 834.8,471.4C835.1,472.1 835.1,472.7 834.8,473.3ZM865.4,478.9L865.4,479.8C864.1,480.5 862.6,481.3 861.1,482C859,478.6 856.8,475.2 854.4,471.9L857.4,471.8C860.4,471.8 862.4,472.2 863.8,473.7C864.9,474.9 865.5,476.7 865.4,478.9ZM871.3,506.5C872.6,501.9 874.1,497.3 875.6,492.7L877.4,494C880.7,496.1 883.9,498.3 887.2,500.2L871.3,506.5ZM841.1,579.7C820.9,572.8 799.6,569.9 778.7,565.2C755.6,560 733.1,552.7 711.4,543.3C712.5,545.8 712.8,548.6 712.1,551.2C711.1,555.4 708.1,558.5 704.3,559.9C704.2,560.3 704.1,560.8 703.9,561.2C706.1,564.3 706.9,568.3 705.7,572.2C705.4,572 705.1,571.8 704.9,571.6C702.7,574.2 700.6,576.9 698.5,579.5L697.7,580.5C697.4,580.6 697.1,580.7 696.8,580.8C696.6,581.2 696.4,581.6 696.2,582.1C696.2,582.2 696.3,582.2 696.3,582.3L696.2,582.5C696.4,582.6 696.5,582.7 696.6,582.8C698.2,586.2 698.4,590.3 696.6,593.9C696.3,594.6 695.8,595.3 695.4,595.9C696.5,596.6 697.5,597.2 698.5,597.9C702.9,600.8 707.4,603.5 712,606.1C721.2,611.2 730.8,615.7 740.6,619.5C759.7,626.9 779.8,631.8 800.2,634.3C830.6,638.1 861.4,636.9 891.7,632.1C896.7,626.4 902.1,621 907,622.2L909.7,622.9C907.8,625.2 905.8,627.6 903.9,629.9C910.1,628.7 916.3,627.4 922.4,626C899.1,609.7 875.4,593.2 848.9,582.7C846.3,581.6 843.7,580.6 841.1,579.7ZM719.2,596.4L718.5,598C714.1,595.5 709.6,593.1 705.3,590.4C707.5,585.7 709.9,580.8 712.3,576C716.7,578.5 721,581.2 725.3,583.7C723.2,587.9 721.1,592.1 719.2,596.4ZM751.1,610C748.3,616.1 744.6,616.5 739.8,615.2L737.4,614.6L738.7,612.5C741.4,608.6 744.5,607.2 749.5,607.6L752,607.7L751.1,610ZM834.7,629L830.4,630.3C833.2,625.7 835.9,621 838.9,616.4L840.2,619.1C843.6,625.4 840.8,627.2 834.7,629ZM821.6,667.6C821.6,667.7 821.7,667.7 821.7,667.8C821.7,667.7 821.6,667.7 821.6,667.6ZM863.6,660.1C868.9,665.4 872.7,669.7 875,672.3C857.2,675.6 839,675.8 820.8,673C821.1,672.7 821.3,672.5 821.6,672.2C822.2,670.5 822.3,669 821.7,667.8C821.8,667.9 821.8,667.9 821.6,667.6C820.9,666.4 821.3,667.2 821.6,667.6C820.4,665.7 817.9,664.9 815.4,664.3L813.9,664C813.5,665.1 813,666.2 812.6,667.4C805.2,656.4 797.2,646.3 788.8,637.4C800.1,639.3 812,640.5 823.9,641C830.2,641.3 836.7,641.4 843.2,641.3C848.4,645.7 853.1,650 857.3,653.9C854.6,654.5 851.7,654.5 848.4,653.7L847.1,653.3C845.5,656.1 844,658.9 842.4,661.8C842.8,663.1 843.3,664.5 843.4,666C844.6,666 845.9,666 847.1,666.1C849.5,666.2 852,666.4 853.3,664.9C856.3,662 860,661.3 863.6,660.1ZM692,825.8C694.7,839.2 697,852.7 699.1,866.3C699,866.2 699,866.2 698.9,866.1C689.8,852.6 680,839.6 670.3,826.5C671,825.8 671.7,825.1 672.5,824.4C672.6,824.4 674.6,822.8 674.7,822C677.8,822.4 680.9,822.4 684,823.2C686.7,823.7 689.3,824.7 692,825.8ZM170.3,477.3C182.9,478.4 195.2,474.3 207.5,471.4C233.7,465.2 261,464.2 287.5,468.5C288.1,463.8 291.3,460.2 295.4,458.6C292.2,455.5 290.7,450.9 291.8,446.3C292.9,441.7 296.4,438.4 300.7,437.2C299.4,435.7 298.5,433.9 298,432.1C290.8,428.9 283.4,426.1 275.9,423.8C254.5,417.4 232.2,414.7 209.9,413.2C197.1,412.4 184.2,412 171.3,412C172.5,421.9 176.5,433.3 169.2,437.2L168.9,437.3C164.9,438.9 159.9,438.5 155.6,439.1C162.3,430.8 170.1,422.8 165,412C150.8,412.2 136.7,412.8 122.5,414C120.5,414.6 118.4,414.8 115.7,414.6C111.2,415 106.8,415.5 102.3,416C100.9,416.2 99.4,416.4 97.9,416.6C97.9,416.7 98,416.8 98,416.9C95,418.7 92.1,420.5 89.1,422.2L88.7,419.8C88.6,419.3 88.4,418.6 88.2,417.8C81.6,418.7 75,419.7 68.5,420.9C91.4,440.7 117.2,457.1 144.8,469.5C153,473.2 161.4,476.5 170.3,477.3ZM216,437.6L217.6,439.2C221.2,442.6 226.6,444.7 230.6,440.5C234.8,443.2 238.8,445.7 242.9,448.2C238.9,449.1 234.7,449.7 230.6,450.3C227.5,452.7 226,458.8 224.4,462.2L222.9,461.3C218.2,458.5 213.3,456 208.5,453.3C210.9,448.1 213.4,442.8 216,437.6ZM94.7,601.7C91.8,600 89,598.1 86.4,596C93.4,594.1 100.3,592.1 107.2,589.9C132.7,581.8 156.4,571.1 180.3,559.2C195.5,551.6 211.1,544.9 227.5,540.4C231.7,539.2 235.9,538.2 240.2,537.4C240.8,537.7 241.5,537.9 242.1,538.2L243.4,539.1C243.8,538.2 244.2,537.4 244.6,536.5C251.2,535.3 257.8,534.4 264.5,533.9C263.1,534.9 261.7,535.8 260.3,536.7C260.9,537.6 261.5,538.6 262.2,539.4L263.1,540.3C268.5,537.9 273.9,535.5 279.2,533.1C282.3,533 285.5,532.9 288.6,533C288.5,534.1 288.5,535.2 288.7,536.3C289.5,541 292.8,544.6 297,546C293.9,549.1 292.5,553.8 293.8,558.4C295.1,563 298.7,566.2 303,567.2C300.3,570.4 299.5,574.9 300.9,579.1C278.4,585.8 256,592.5 233.4,599.3C229.3,596.7 225.1,594 221,591.1L220.1,592.7C217.8,596.9 215.6,601.1 213.2,605.1C195,610.2 176.6,614.5 157.7,615.5C145.6,616.1 133.3,615.2 121.5,612.4C124.9,609.7 128.2,607.1 131.5,604.5C130.8,603.2 130.2,601.7 129.4,600.2C125.4,601.4 120.7,602.9 116.5,603.3C108.8,604.3 102.1,599 94.7,601.7ZM110.1,350.7C127.7,363 154.2,380.6 184,397.2C190.6,400.9 197.2,404.4 203.7,407.8C229.5,409.2 252.6,412.6 272.4,418C281.5,420.5 290,423.4 297.8,426.7C297.9,426 298.1,425.3 298.4,424.6C300,420.2 303.8,417.2 308.2,416.5C305.7,412.9 305.1,408.1 307.2,403.8C309.2,399.5 313.4,397 317.8,396.7C316.3,393.9 315.9,390.5 316.7,387.4C317.1,387.8 317.5,388.2 318,388.6L322.1,391.8L321.3,389.5C317,386.3 312.6,383.1 308.1,380.1C295.2,371.6 281.6,364.3 267.4,358.3C241,347 212.5,339.8 184,336.5C146.1,332 113.8,334.9 98.1,337C102.6,341.1 107.2,345.2 111.9,349.4C111.3,349.8 110.7,350.3 110.1,350.7ZM188.7,383.2C189.4,381.9 190.2,380.4 190.9,378.8C191,378.5 191.2,378.4 191.3,378.1C192.2,378.2 193.2,378.8 194.1,378.8L197.1,379.4C195.9,382.7 195,385.8 193.8,389L187.6,388C187.9,386.3 188.2,384.8 188.7,383.2ZM181.9,550.4C196,546.1 209.2,539.5 223.3,535.3C225.9,534.5 228.5,533.9 231.1,533.3C228.5,532.2 225.9,531.1 223.3,530C227.3,524.1 231.3,518 235.5,512.2C241,515.3 246.5,518.4 252,521.5C250.6,524.5 249.1,527.5 247.6,530.5C255.5,529.5 263.5,529 271.6,528.8C272.2,528.4 272.9,527.9 273.5,527.5C272.5,524.5 270.1,523.6 267.3,522.6C265.7,522 263.9,521.4 262.6,520.2L261.4,519.3C264.4,513.8 270.1,502.5 270.1,502.5L282.6,510.7L281.1,522.7C281.1,522.7 285.7,520.7 287.9,519.7C286.8,518 286.1,516 286,513.8C285.7,509.1 288,504.8 291.7,502.4C287.9,500.1 285.4,495.9 285.6,491.2C285.7,486.4 288.5,482.4 292.4,480.4C290,478.6 288.3,476 287.6,473.1C264.1,469.1 239.3,469.8 216.5,474C206,475.9 195.6,478.7 185.5,482.3C154.7,489.2 125.2,505.8 99.2,523.5C86.9,531.9 75.2,541 64.2,550.9C103.4,556.5 144.1,562.1 181.9,550.4ZM154.9,496.3L156.7,497.6C168.8,506.5 170.9,512.8 165.4,523.6L164.7,525.2L161.4,523.3C156.8,520.6 152.4,518 147.9,515.1C150.1,508.9 152.5,502.5 154.9,496.3ZM248.1,172.1C248.8,173.6 249.6,175 250.3,176.5C251.6,177.3 253,178.1 254.3,178.8C253.7,179.6 253.2,180.4 252.6,181.2C254.9,185.7 257.2,190.3 259.6,194.8C267.3,209.4 275.5,223.8 284.1,238C287.3,236.5 290.2,234.7 292.4,232.1C291.4,230.6 290.3,229.1 289.3,227.8C291.5,224.1 293.7,220.4 296,216.5C303.6,220.2 311.3,223.8 318.8,227.5C318.5,228.5 318.2,229.6 317.8,230.5C314.2,241.2 305.8,248 297.9,237.5C297.8,237.4 297.6,237.2 297.6,237.2C293.1,238 291.3,242.3 289,246.1C299.2,262.5 309.9,278.5 321.1,294.1C330.7,307.4 340.7,320.5 351.9,332.5C354.1,334.8 356.4,337.1 358.6,339.3C359.2,336.8 360.6,334.5 362.7,332.8C366.3,329.8 371.2,329.1 375.3,330.7C374.9,326.3 376.9,321.8 380.8,319.2C384.7,316.6 389.6,316.4 393.5,318.4C393.6,314 396,309.7 400.2,307.5C404.4,305.2 409.3,305.6 413,308C413.5,304.3 415.6,301 418.9,298.9C406.5,267.9 387.8,239.3 364.1,215.7C342.7,194.4 317.2,177.2 289.4,165C281,161.3 272.5,158.2 263.8,155.5C259.4,154.1 255.1,152.9 250.6,151.8C247.7,151 240.4,148 237.4,149.2C238.3,153.1 240.9,157 242.6,160.6C244.4,164.4 246.3,168.3 248.1,172.1ZM374.8,243.1C377.6,245.5 380.4,247.8 383.4,250.2C380,249.9 376.4,249.6 372.9,249.3C373.6,247.2 374.2,245.1 374.8,243.1ZM341.8,266.9C344,268.4 346.2,269.7 348.3,271.2C347.9,271.9 347.4,272.8 347,273.6L345.8,273.3C343.3,272.7 341.1,272.1 339.4,271.2C340.2,269.7 341.1,268.4 341.8,266.9ZM328.3,230C329.3,229.6 330.7,229.4 331.7,229.6C334.4,229.6 336.6,230.9 337.8,233.2C338.7,234.5 337.9,236.5 336.9,237.5C333,241.4 328.2,235.1 325.9,232.6C325.5,231.9 328.1,230.2 328.3,230ZM274.1,167L275,165.4C279.2,168.4 283.5,171.3 287.6,174.1C285.5,178.3 283.4,182.6 281.4,186.7C276.8,184.3 272.1,182.3 267.5,180C269.6,175.6 272,171.3 274.1,167ZM203.9,195.8C202.2,187.7 202,182.1 202,179.2C209.7,182 233.1,191.1 260.7,206.4C261.6,208 262.5,209.6 263.3,211.2C260.5,211.1 257.6,211.2 256,212.6C254.5,213.8 253.7,215.2 253.5,216.7L253.5,216.9C253.5,217 253.5,217.2 253.6,217.3C253.6,219.4 254.8,221.5 256.9,223.7L258.2,225C260.5,221.6 263,218.3 265.5,215C270.3,223.6 275.1,231.9 279.8,240C276.2,241.4 272.6,242.7 269.5,244.3C274.2,246.5 279,248.6 283.7,250.8L284.6,251.2L285.3,250.6C285.5,250.4 285.7,250.3 285.9,250.1C305,281.2 330.3,317.7 357.6,344.7C353.5,343.9 349.2,345 346.1,348.2C322.2,312.2 284.8,284 253.4,264.8C244.1,259.1 234.2,253.6 224,248.3C221.8,244.2 219.9,240.2 218.1,236.4L218.2,236.5L220,237.7C222.4,233.1 224.9,228.5 227.3,223.8L226,223.1C220,219.4 216.8,219.3 212.4,223.6C208.1,212.7 205.5,203.6 204,196.5L205.4,196.8C211.6,198.3 215.9,196.2 219.2,190L220.1,188.4L218.3,187.7C210.1,184.7 206.9,187.1 204.2,194.8L203.9,195.8ZM168.4,252.9C170.8,260.5 173.6,267.9 176.8,275.2C183.2,289.8 191.2,303.6 200.6,316.5C201.6,317.9 202.7,319.3 203.8,320.7C208,326.2 212.6,331.6 218.4,335.3C225.1,339.6 233.1,341.5 240.8,343.7C270,352.1 297.6,365.8 321.9,383.8C323.8,382.5 326.7,381.5 326.4,378.6L326.3,378.3C327.3,378 328.4,377.9 329.5,378C327.8,373.9 328.3,369 331.2,365.3C334.1,361.6 338.7,359.9 343.1,360.6C342.3,357.9 342.4,354.9 343.5,352.2C335.9,340.9 326.7,330.7 316.9,321.1C294.9,299.3 270.2,280.3 243.7,264.3C230.4,256.3 216.6,249 202.4,242.6C195.3,239.4 188.1,236.4 180.9,233.6C177.2,232.2 173.5,230.9 169.9,229.6C167.3,228.7 162.3,225.6 162.4,229.8C162.5,233.5 164.1,237.8 165.1,241.4C166.1,245.3 167.2,249.1 168.4,252.9ZM330.4,339.3C330.8,340.3 331.4,341.4 332,342.6C333.6,345.4 335.6,348.7 333.2,353.4L332.8,354.1C330.4,352.3 327.9,350.7 325.4,348.9C327,345.7 328.8,342.4 330.4,339.3ZM438.6,704.5C418.1,734 406.8,769.5 403.9,805.4C403.3,814.2 403,823.1 400.7,831.6C392.7,861.2 361.9,880 352.2,909.1C341.9,870.6 341.7,829.4 351.7,790.8C361.2,754.3 379.7,720.2 405,692.2C405.6,692.6 406.3,693.1 407,693.4C411.3,695.5 416.1,694.9 419.7,692.4C420.4,696.8 423.4,700.6 427.8,702.2C432.2,703.8 437,702.8 440.4,699.9C440.5,700.4 440.7,700.9 440.9,701.3C440.1,702.4 439.3,703.5 438.6,704.5ZM354.2,761C341.5,785.5 329.1,810.5 311.8,832C301.4,845.3 288.7,857.2 274.2,865.9C265.1,871.4 255.3,875.5 244.9,877.9C246.8,863.9 250.6,850.3 255.4,837.1C261.9,834.1 266,829.9 268,823.7C271.3,825.5 274.4,827.3 277.6,829L277.6,826.2C277.6,819.1 281.9,815.2 286.2,811.1C286.3,811 288.3,809.3 288.4,808.7C291.5,809.1 294.6,809.1 297.7,809.9C300.6,810.4 303.4,811.6 306.2,812.8C306.3,811.9 306.3,811 306.4,810.1C303.2,806.2 300.1,802.4 297,798.7C294.6,801.5 291.7,803.6 287.8,805.2L284.2,805.9C280.2,806.2 276.5,805.3 273.2,802.8C272.4,802.2 271.7,801.3 271.1,800.4C275.7,791.2 280.5,782.1 285.2,773C289.2,765.5 293.2,757.9 299.4,752.1C306.8,745.1 316.6,741.4 325.7,736.8C350.4,724.3 371.2,704.6 385.1,680.8C385.7,681.4 386.4,681.9 387.1,682.4C391.1,684.9 396,684.9 399.9,682.8C400,684.9 400.7,687 401.8,688.8C400.9,689.8 399.9,690.7 399.1,691.7C380.3,711.9 366.9,736.5 354.2,761ZM101,642.2C107.7,637.8 120.5,629.6 137.7,620C139.8,620.3 141.6,620.4 143.4,620.6C148.1,621 154.7,620.6 162.9,619.5C175.9,617.8 192.5,614.3 210.9,609.9C217,612.5 223.1,615 229.2,617.7C231.6,613 234.1,608.2 236.3,603.4C258.6,597.4 282.1,590.6 303.9,584C305.9,586 308.4,587.2 311.2,587.6C310.4,588.8 309.9,590.1 309.5,591.5C301,593.4 292.6,596.1 284.2,599.5C284.1,599.6 283.9,599.6 283.8,599.7C269.2,605.6 255.5,613.5 242.6,622.5C235.6,627.4 228.9,632.7 222.4,638.2C218.2,641.8 214.8,646.4 210,649.3C209.8,649.4 209.6,649.5 209.4,649.6C209.5,646.2 207.2,642.6 202.1,641.4L201.4,641.1C197.7,644.2 194.1,647.6 190.3,650.4L190.6,651.3C190.6,651.5 190.7,651.7 190.8,651.9C148.1,652.3 112.8,645 101,642.2ZM460.4,816.8C455.8,808.8 453.4,799.6 447.9,792C443,785.2 431.7,778.2 434.3,768.7C439,775.4 446,777.2 453,779.4C458.8,781.3 461.3,786.8 465.8,790.7C467.7,792.3 469.9,793.6 472.1,794.9C472.9,793 473.6,791.1 474.4,789.2C477.5,782.4 480.3,775.4 482.8,768.4C473.3,767.2 468.8,761.9 460.4,758.7C469.3,744 460.5,736.8 453,723.3C456.7,718.6 460.3,713.8 463.9,708.8C463,707.8 462.4,706.6 461.9,705.4L461.7,705.4C458.6,708.5 454.1,710 449.5,708.9C447.1,708.3 445,707 443.4,705.4C440.2,710.3 437.2,715.3 434.4,720.4C425.8,736.2 419.2,753.1 414.7,770.5C403.6,813 404.5,858.2 413.9,901.1C433.5,873.9 450.3,844.8 464,814.2C462.8,814.9 461.6,815.9 460.4,816.8ZM431.7,746C431.4,748.2 431.6,750.6 432.9,753.1C430.8,754.3 429,755.3 426.4,757.1C425.4,756.1 424.3,754.9 423.3,753.7C426,751.2 428.9,748.6 431.7,746ZM440.6,830.1C440.1,829.6 439.6,829 439.2,828.5C432.3,820.6 425,812.7 418.4,804.4C426.7,805.8 436,812.9 441.8,816.2C442.2,820.1 443,824.5 443.6,829C442.6,829.5 441.6,829.8 440.6,830.1ZM509.1,805.8C506,835.4 498.3,863.5 483.9,889.8C478.5,899.6 472.3,909.3 464,917C461.4,919.4 458.7,921.5 455.9,923.5C453.9,924.9 449.8,925.9 448.6,928C456.5,915.3 463.6,889 467.7,867.9C471.8,846.7 474.2,825.2 474.7,805.6C477,803.8 479.2,802 481.5,800.2C480,799.3 478.4,798.4 476.8,797.6C481.1,787.1 484.9,776.8 488.1,766.8C488.9,766 489.5,764.9 490,763.6L489.2,763.6C491.6,755.8 493.7,748.2 495.4,740.8C497.7,740.6 500.2,740.4 502.7,740.2C501.7,738.6 500.9,736.9 500.2,735.2C499,735.7 497.7,736.3 496.4,736.8C498.1,728.9 499.4,721.2 500.3,713.8C502.3,712.8 504,711.4 505.2,709.5L506,709.5C506.8,710.7 507.9,711.6 509.1,712.4C509.4,715.3 509.7,718.2 509.8,721.1C509.6,723.2 509.7,725.3 509.7,727.5C509.7,743.1 511.3,758.8 511,774.5C511,776.2 510.9,778 510.8,779.7C510.1,779.2 509.4,778.7 508.6,778.2C509,784.7 509.2,789 509.3,793.2C509.6,793.3 509.9,793.3 510.1,793.4C509.8,797.6 509.5,801.7 509.1,805.8ZM255.5,766.4C236.2,777.7 218.5,793.5 210.7,814.5C209.9,800.4 217.3,787.2 225.8,775.9C234.3,764.6 244.3,754.3 250.4,741.6C256.5,728.8 258.7,713.7 268.4,703.4C274.3,697.1 282.4,693.5 290,689.5C293.7,687.1 297.9,685.3 301.7,683C315.4,674.9 328.3,665.5 340.2,655C342.8,652.7 345.3,650.3 347.8,647.9C348.3,650.3 349.4,652.7 351.4,654.5C354.8,657.8 359.6,658.8 363.8,657.5C363.1,661.9 364.8,666.5 368.5,669.4C372.2,672.3 377.1,672.8 381.2,671.1C381.1,673.3 381.6,675.5 382.6,677.5C367.2,703.4 342.5,723.1 315.7,737.1C296.3,747.3 275.6,754.9 256.6,765.8C256.5,765.8 256.3,765.7 256.2,765.7L256.1,766.1C255.9,766.2 255.7,766.3 255.5,766.4ZM219.3,705.7C220.9,708.4 222.3,711.1 223.8,713.8C242.2,707.6 260.1,700.2 277.1,691C302.8,679 326.4,662.4 346.5,642.4C342.6,642.6 338.6,641.1 336,637.9C333,634.3 332.3,629.4 333.9,625.3C329.5,625.7 325,623.7 322.4,619.8C319.8,615.9 319.6,611 321.6,607.1C317.2,607 312.9,604.6 310.7,600.4C310,599.2 309.6,597.8 309.4,596.5C308.3,596.8 307.1,597.1 305.9,597.4C297.9,599.5 290.6,603 282.9,605.5C269.7,609.7 257.4,618.7 246.1,626.7C234,635.3 222.4,644.7 211.6,654.8C189.9,675.1 170.9,698.3 155.5,723.7C153.5,726.7 151.7,729.8 150,732.9C170.3,728.8 190.7,724 210.6,718C212.1,714.1 215.1,710.6 217.7,707.6L219.3,705.7ZM267,618.3C270.4,620.1 273.8,621.9 277.2,623.8C273.5,628.5 269.9,633 266.5,637.4C264.6,636.2 262.6,635.2 260.4,634.1L258.8,633.4C261.6,628.4 264.3,623.4 267,618.3ZM243.2,661.8C244.1,662.4 245.1,663.1 246,663.7C241.4,669.8 237.3,675.3 233.8,679.9C233.7,679.8 233.4,679.6 232.9,679.5L230.8,678.8C234.8,672.9 239.1,667.4 243.2,661.8Z" style="fill:rgb(162,140,59);fill-rule:nonzero;"/>
    </g>
</svg>
