<?xml version="1.0" encoding="UTF-8" standalone="no"?><!DOCTYPE svg PUBLIC "-//W3C//DTD SVG 1.1//EN" "http://www.w3.org/Graphics/SVG/1.1/DTD/svg11.dtd"><svg width="398px" height="384px" version="1.1" xmlns="http://www.w3.org/2000/svg" xmlns:xlink="http://www.w3.org/1999/xlink" xml:space="preserve" xmlns:serif="http://www.serif.com/" style="fill-rule:evenodd;clip-rule:evenodd;stroke-linejoin:round;stroke-miterlimit:2;"><path d="M230.931,333.263c3.8,-3.6 2.5,-7 1.9,-10.2c-3,-15.1 -4.7,-30.4 -9.5,-45.1c-1.1,-3.1 -3.2,-6.8 2,-8.5c4.2,-1.5 7.6,0.1 9.9,3.8c4.6,7.4 7.7,15.8 15.4,23.6c-0.3,-9.6 -4.7,-15.8 -8.2,-22.4c-1.7,-3.1 -6.7,-6.7 -1.1,-10.5c4.7,-3.3 8.7,-1 12.5,2.1c15.1,12.8 21.7,28.6 17.8,47.7c-4.6,22.9 -16.3,43.6 -24.4,65.4c-1.9,5 -6,4.9 -9.3,1.6c-15.4,-14.9 -33.4,-27.5 -44,-46.9c-9.5,-17.1 -9.4,-34.6 -5.1,-52.7c1.1,-4.9 4.2,-6.7 9.2,-6.6c5.6,0.2 5.8,4.1 5.9,7.9c0.2,6.4 0.3,12.8 2.2,19.2c4.5,-1.9 3.3,-4.9 3.3,-7.4c-0.1,-4.1 -0.7,-8.2 -0.6,-12.3c0.1,-3.2 -0.9,-7.5 3.8,-8.5c5.7,-1.1 6.1,4.1 7,7.3c2.4,7.8 4.2,15.8 5.5,23.9c1.5,9.4 1.6,19 5.8,28.6Zm75.3,-109.1c-4.6,-4.8 -10.7,-4.4 -16.4,-5c-3.3,-0.3 -7.7,0.7 -8.7,-3.9c-1.1,-4.9 2.9,-6.4 6.5,-8c18.1,-7.7 37.7,-2.8 49.6,12.1c15.2,19.2 26.9,40.9 42.5,60c3.1,3.8 2,6.4 -2.9,7c-22.6,2.7 -45.2,6.3 -67.9,4c-20.9,-2.1 -35.1,-15.2 -46.9,-30.8c-2,-2.7 -2.9,-5.4 -0.2,-8.3c3.3,-3.5 5.7,-0.6 8.2,0.9c5.3,3.3 10.2,7.4 17,8.6c-2.6,-4.9 -8.2,-7 -12.5,-10.2c-3.1,-2.3 -8.2,-3.7 -5.1,-9.4c3.1,-5.8 7.2,-4.1 11.7,-2.2c15,6.2 30,12.4 45,18.5c1.8,0.8 3.6,2.6 6.4,0.4c-2,-3.4 -6,-4.5 -9.2,-5.9c-13.3,-5.7 -26.7,-11.2 -40,-16.7c-3.3,-1.3 -7.1,-2.5 -6.4,-7c0.8,-4.9 4.8,-5 9,-5.1c6.7,-0 13.3,3.2 20.3,1Zm-213.1,-29.8c5.9,3.4 10.9,1.5 15.7,2.1c2.5,0.3 5.1,0.6 5.9,3.5c0.6,2.3 -1.1,3.8 -2.8,5.2c-2.2,1.6 -4.4,4.2 -6.8,4.6c-16.4,2.5 -32.9,5.7 -48.2,-4.3c-17.5,-11.5 -31.3,-26.6 -45.2,-41.6c-12.6,-13.7 -12.6,-13.6 6,-18.5c16.4,-4.3 32.1,-10.9 49.2,-12.8c10.3,-1.1 19.6,-0.2 28.6,5.2c9.4,5.6 19.2,10.3 27.5,17.4c2,1.8 5.1,3.8 2.7,6.7c-2,2.3 -4.6,0.2 -6.8,-0.7c-6,-2.4 -10.8,-7.4 -18.2,-6.8c4.3,5.1 10.8,7 16.3,10.1c3.3,1.8 6.1,3.4 4.2,7.9c-1.9,4.6 -5.1,4.9 -9.4,3.8c-18.1,-5 -36,-10.4 -54.7,-13c-2.5,-0.3 -5.4,-2.3 -8,1.4c6.8,3.4 14.1,4.2 21.1,5.9c12.4,3 24.9,5.5 37.3,8.6c3.9,1 8.7,2.2 8.1,7.8c-0.7,5.8 -5.5,5.2 -9.7,5.6c-3.9,0.2 -7.9,-0.8 -12.8,1.9Zm190.4,-4.4c10.8,-4.9 22.4,-0.9 34.8,-6.3c-9.7,-2.3 -17.1,-0.8 -24.5,-0.2c-4.9,0.4 -12.5,3.7 -14.2,-1.9c-1.7,-5.3 6.5,-5.9 10.6,-7.9c13.1,-6.6 26.4,-12.8 41.3,-20c-6.3,-3 -9.9,-0.2 -13.1,1.4c-12.1,5.8 -23.9,12 -35.9,18c-2.1,1 -4.6,3.2 -6.7,0.9c-2,-2.2 0.4,-4.4 1.7,-6.3c3.6,-5.2 10.5,-7.9 13.9,-15.4c-9.5,1.2 -11.5,10 -20.1,13.4c3,-13.2 8.4,-23.4 18.2,-31c10.2,-7.9 22.1,-12.2 35.2,-13.2c18.3,-1.4 36.1,1.3 53.8,5.2c4.3,0.9 7.7,2.2 4.9,7.5c-6.6,12.8 -12.4,26.2 -21.2,37.7c-18.5,24.4 -46.1,30.6 -78.7,18.1Zm-122.5,-56.4c-8.9,-6.6 -11.5,-17 -17.1,-25.5c-2,-3 -2.7,-7 -8.2,-8.7c0.2,7.1 4.3,11.4 7,16.4c2.3,4.2 4.9,8.3 7.3,12.5c1.3,2.3 3.9,5.2 1.1,7.3c-3.1,2.2 -5,-1.4 -6.6,-3.3c-10.8,-12.2 -21.4,-24.6 -32.1,-36.9c-2.2,-2.4 -3.3,-6.1 -8.8,-7c2.5,6.5 7.2,10.6 11,15.1c8.7,10.3 17.9,20.3 26.7,30.5c1.5,1.7 4.2,3.8 1.3,6c-2,1.5 -3.8,-0.7 -5.5,-2c-5.4,-4.1 -9.9,-9.5 -18.3,-13.5c3.7,9.9 13.3,12.3 17,19.4c-21.2,3.4 -45,-10.6 -51.4,-29.6c-7.1,-20.9 -6.1,-42.4 -6.6,-63.8c-0.1,-4.9 1.8,-7 7.2,-4.3c12.8,6.1 26.7,9.3 40.1,13.7c27.5,8.9 35.7,19.6 35.9,47.2c0.1,8.8 0.1,17.7 0.1,26.5c-0.3,0.1 -0.1,-0 -0.1,-0Zm-104.4,130.2c21.9,-10.7 41.9,-24.8 66.9,-33.9c-2.9,9.9 -11.3,13.8 -14.4,22.4c9.2,-0.5 10.3,-9.5 16.4,-12.2c2.4,3.8 0.7,6.7 -1.2,9.6c-18,27.5 -40.8,47.3 -77.6,45.2c-7.4,-0.4 -14.9,0.1 -22.4,0.2c-4.3,0.1 -6,-1.6 -4.2,-5.6c6,-13.5 8.1,-28.2 13,-42.1c8.5,-23.6 22.4,-32.6 48.4,-31c10.6,0.6 21.1,1 34.1,1.6c-10.9,7.1 -22.8,5.6 -31.6,12.2c10.9,0.5 21.1,-4.1 32.2,-4.7c-19.4,13.6 -42.3,22.1 -59.6,38.3Zm68.2,21.9c5.9,-2.9 8.8,-8.4 12.5,-13.1c1.5,-2 2.7,-4.1 4.3,-5.8c2,-2.1 3.5,-6.3 7.3,-4.1c2.9,1.8 0.5,5 -0.6,7.4c-6.1,13.5 -12.3,26.8 -18.4,40.3c-2.2,4.9 -5,9.5 -5.2,15.7c4.6,-2 5.1,-5.6 6.4,-8.6c7.3,-15.6 14.4,-31.1 21.7,-46.7c1,-2 1.5,-5.5 4.6,-4.8c3.8,0.9 2.5,4.1 2,6.8c-2,8.8 -5.6,17.4 -5.7,27.4c5.5,-1.4 6,-5.3 6.7,-8.8c1,-4.7 1.5,-9.5 2.5,-14.1c0.7,-2.8 0.5,-6.8 4.6,-7.3c4.2,-0.5 6.4,2.8 7.8,5.9c5.5,11.8 5.4,23.8 0.6,35.8c-3.1,7.7 -7.7,14.6 -13.9,20.4c-11.9,11.2 -24.1,22.1 -36,33.3c-3.9,3.7 -6.9,3.1 -9.1,-1.3c-10.1,-20 -19.2,-40.5 -18.7,-63.3c0.2,-11.5 5.1,-21.8 15.6,-29c6.4,-4.3 12.4,-9.2 18.7,-13.6c2.8,-2 5.9,-5.5 9.3,-2.4c3.9,3.5 -0.9,5.9 -2.8,8.5c-5.3,6.8 -12,12.7 -14.2,21.4Zm85,-197.4c-4.2,10 -2.3,20.7 -6.4,30.7c-7.7,-19.8 -7.5,-41.2 -13.5,-61.9c-4.3,3.7 -2,7.1 -1.5,10.2c2.3,15.9 4.9,31.7 7.3,47.5c0.3,2.2 1.9,5.2 -1.5,6.1c-3.2,0.8 -3.6,-2.6 -4.7,-4.5c-3.1,-5.4 -3.3,-12.3 -9.7,-18.5c0.6,9.9 6,17 5,25c-17,-19.9 -27.2,-41.7 -23,-68.2c3.1,-19.5 14,-35.5 23.6,-52.2c1.9,-3.3 4.5,-3.2 6.6,-0.2c11.1,15.8 24.5,30.1 33.3,47.4c2.7,5.2 4,11 3.7,16.9c-0.9,18 -8.5,34 -15.6,52.6c-5.8,-11.4 1.4,-21.7 -3.6,-30.9Zm43.4,55.6c3.5,-7.7 13,-9 15.1,-17.3c-6.1,0.5 -9,4.6 -12.6,7.4c-2.4,1.7 -4.9,5.9 -7.7,3.6c-3.3,-2.7 0.9,-5.5 2.7,-7.6c12.4,-14.9 20.5,-31.8 28.5,-49.1c0.7,-1.5 1.7,-3.1 -0.2,-5.2c-4.2,1.9 -5,6.2 -6.8,9.5c-7,13 -12.8,26.7 -21.9,38.6c-1.5,2 -2.9,3.8 -4.4,5.8c-1.8,2.3 -3.8,4.3 -7.1,3.1c-3.7,-1.4 -2.5,-4.3 -2.1,-7c0.7,-4.1 3.5,-8.1 2.4,-13.2c-4.7,2.3 -4.6,6.5 -6.1,9.7c-0.8,1.9 -1.4,4.1 -4.2,3.9c-2.5,-0.2 -3.3,-2.3 -3.8,-4.4c-3.7,-16.3 -0.2,-30.7 13.2,-41.8c12.5,-10.2 25.5,-19.6 38.3,-29.4c3.3,-2.6 6.6,-5.2 9.9,-7.7c2.1,-1.6 3.5,-5.1 6.8,-3.9c2.7,0.9 2,4.1 2.3,6.4c2,17.6 6.1,35.1 5.6,52.9c-0.6,27.4 -17.8,44 -47.9,45.7Zm27.8,144.7c12.3,2.6 22.3,4.6 32.2,6.8c3.5,0.8 5,3.1 5.6,6.5c2.1,11.5 1.4,23.1 1.6,34.7c0.1,4.9 -2.4,6.8 -7.3,6.2c-12.6,-1.5 -25.4,-2.9 -38.1,-4.4c-4.7,-0.5 -7.3,-2 -4.9,-7.2c4.9,-11.1 7.2,-22.8 7.3,-35.5c10.5,9.6 16.7,22.8 29.5,30.1c-6.4,-12.7 -17.2,-22.7 -25.9,-37.2Zm85.5,-75.6c-9.2,-7.7 -21.8,-8.1 -33.3,-14.5c9,-3.1 16.1,-6.7 23.2,-10.4c6.6,-3.4 13.2,-1.3 19,2.7c6.2,4.1 10.9,9.7 16,14.9c7.8,8.1 7.8,8.5 -1.2,15.9c-7.6,6.2 -15.8,11.6 -24.5,16.3c-4.9,2.7 -8.9,2.3 -11.7,-2.6c-5.7,-10.1 -11.5,-20.2 -22.1,-29.3c13.5,0.6 23.2,7.4 34.6,7Zm-55.8,-94.5c8.6,-7.3 17.1,-14.6 25.7,-21.9c-0.6,-0.7 -1.1,-1.4 -1.7,-2.1c-11.3,6.2 -19.6,16.3 -32.3,25c4.2,-12.3 6.6,-22.4 6.6,-32.9c-0,-4 3.4,-5.9 7.2,-6.3c10.5,-1.4 21,-2.7 31.6,-3.9c5.6,-0.6 7.8,2 7.1,7.2c-1.2,8.8 -2.5,17.5 -3.6,26.3c-0.6,4.9 -3.2,7.3 -8.5,6.9c-10.6,-0.8 -21,1.3 -32.1,1.7Zm-286.4,98.6c10.3,1.6 18.1,-1.6 27.7,-1.3c-7.7,7.1 -15.7,12.7 -19.9,21.3c-1.7,3.4 -5.3,3.1 -8.2,1c-7.2,-5 -14.3,-10.1 -21.4,-15.2c-3.3,-2.3 -3.2,-4.9 -0.7,-7.8c6.1,-7 12.1,-14.2 18.2,-21.3c4.2,-4.9 8.7,-5.1 13.7,-0.8c5,4.3 10.2,8.5 15.2,12.7c1.5,1.3 4.2,2.3 2.9,4.6c-0.7,1.2 -2.9,1.8 -4.6,2c-7,1.4 -14.6,-0 -22.9,4.8Zm152.2,107.2c0.4,8.1 -2.5,15.6 0.1,24.4c6.4,-6.9 2.3,-15.8 7.6,-23c5.1,8.1 10,16 14.9,23.7c2,3.3 0.7,5.8 -1.9,8.1c-5.9,5.5 -11.7,11 -17.4,16.4c-2.8,2.6 -5.5,2.9 -8.4,0.2c-6,-5.8 -12,-11.7 -17.9,-17.4c-3.4,-3.3 -3.5,-6.7 -0,-9.7c8,-7.1 15.1,-15.1 23,-22.7Zm-97.8,-204c-6.8,-1.6 -11.1,-6.7 -17.2,-7c-0.6,-0 -1.1,0.5 -2.2,1.1c4.2,5.2 11.5,6.5 17.1,12c-9.5,1.8 -17.8,2.6 -26.1,2.9c-4.2,0.2 -6.7,-1.8 -7.9,-5.4c-1.2,-3.5 -2.4,-7.1 -3.3,-10.8c-5.3,-20.1 -4.6,-20.9 15.9,-22.3c17.4,-1.2 17.4,-1.2 21.4,15.2c1,4.5 2.8,8.9 2.3,14.3Zm7.1,173.1c-3.4,8.8 -9.9,13.1 -13.9,21.1c11.8,-3 13,-14.4 21.5,-19.2c-0.8,9.5 0.2,18.2 2.4,26.6c1.2,5.1 -0,7.7 -5.7,8.4c-8.1,0.9 -16.1,2.2 -24.1,3.3c-7,0.9 -10.8,-2 -11.2,-8.8c-0,-0.7 -0.2,-1.3 -0.2,-2c0.1,-6.7 -2.9,-14.3 0.4,-20.1c3.8,-6.4 12.6,-4 19.2,-5.7c3.4,-0.9 6.6,-2 11.6,-3.6Zm157.2,-226.8c0.2,-8 5,-15 3.8,-23.1c-6.5,8.5 -6.6,19.6 -11.9,28.9c-0.1,-8.4 -2,-16.1 -5.2,-23.6c-2.4,-5.5 -0.9,-10 4,-13.5c4.6,-3.2 9.2,-6.3 13.8,-9.6c4.5,-3.1 7.7,-2.3 10.2,2.4c12.6,23.5 14.9,18.7 -6.7,34.7c-2.2,1.7 -3.9,3.9 -8,3.8Zm-87.1,-4.2c-6,-6.4 -6.9,-14.1 -13,-20.3c-1.6,9 5.1,14.2 6.3,21.5c-3.8,0.1 -6.6,-2.3 -9.6,-3.4c-16.5,-6.8 -17,-7.4 -10.9,-24.3c6.4,-17.8 3.7,-16.3 21.4,-10.2c13,4.5 13,4.5 10,17.3c-0.7,3 -1.6,5.9 -2.3,8.9c-0.8,3 -1.2,6.1 -1.9,10.5Z" style="fill:#fee493;fill-rule:nonzero;"/></svg>